<svg width="45" height="45" viewBox="0 0 45 45" fill="none" xmlns="http://www.w3.org/2000/svg">
<path d="M44.3408 35.2629C44.705 35.2629 45 34.9678 45 34.6038V33.5936C45 31.7712 43.8372 30.1637 42.1061 29.5933L37.9861 28.2377V26.8112C39.4207 25.9505 40.3832 24.3802 40.3832 22.5889V19.7478C40.3832 17.0344 38.1757 14.827 35.4624 14.827C33.8642 14.827 32.442 15.5934 31.5425 16.7774C31.0446 15.843 30.2003 15.1143 29.1432 14.7671L25.0236 13.4108V11.9843C26.4582 11.1236 27.4207 9.55327 27.4207 7.76197V4.92082C27.4208 2.20746 25.2134 0 22.5 0C19.7866 0 17.5792 2.20746 17.5792 4.92082V7.76189C17.5792 9.55318 18.5417 11.1235 19.9763 11.9842V13.4107L15.8571 14.7669C14.7998 15.1143 13.9554 15.843 13.4575 16.7774C12.558 15.5933 11.1358 14.827 9.53763 14.827C6.82427 14.827 4.61681 17.0344 4.61681 19.7478V22.5889C4.61681 24.3802 5.5793 25.9505 7.01394 26.8112V28.2377L2.89354 29.5934C1.16279 30.1637 0 31.7712 0 33.5936V34.6038C0 34.9678 0.295049 35.2629 0.65918 35.2629C1.02331 35.2629 1.31836 34.9678 1.31836 34.6038V33.5936C1.31836 32.3416 2.1172 31.2373 3.30583 30.8456L7.1652 29.5756C7.5179 30.5446 8.44813 31.2384 9.53754 31.2384C10.6269 31.2384 11.5571 30.5445 11.9098 29.5756L15.7686 30.8454C16.6145 31.1242 17.2699 31.7663 17.573 32.5801L15.8567 33.145C14.1255 33.7147 12.9624 35.322 12.9624 37.1444V37.9106H5.04729V36.2613C5.04729 35.8973 4.75225 35.6021 4.38811 35.6021C4.02398 35.6021 3.72894 35.8973 3.72894 36.2613V37.9106H1.31836V37.6829C1.31836 37.3189 1.02331 37.0238 0.65918 37.0238C0.295049 37.0238 0 37.3189 0 37.6829V38.5697C0 38.9338 0.295049 39.2289 0.65918 39.2289H12.9624V44.3406C12.9624 44.7047 13.2574 44.9998 13.6216 44.9998H31.3784C31.7425 44.9998 32.0375 44.7047 32.0375 44.3406V43.4602C32.0375 43.0961 31.7425 42.801 31.3784 42.801C31.0142 42.801 30.7192 43.0961 30.7192 43.4602V43.6816H28.3087V39.8129C28.3087 39.4488 28.0136 39.1537 27.6495 39.1537C27.2854 39.1537 26.9903 39.4488 26.9903 39.8129V43.6816H18.0097V39.8129C18.0097 39.4488 17.7146 39.1537 17.3505 39.1537C16.9864 39.1537 16.6913 39.4488 16.6913 39.8129V43.6816H14.2807V37.1446C14.2807 35.8928 15.0797 34.7887 16.2688 34.3974L20.1277 33.1274C20.4805 34.0962 21.4107 34.79 22.5 34.79C23.5893 34.79 24.5195 34.0963 24.8723 33.1274L28.7312 34.3974C29.9203 34.7888 30.7193 35.8928 30.7193 37.1446V40.3827C30.7193 40.7467 31.0143 41.0418 31.3784 41.0418C31.7426 41.0418 32.0376 40.7467 32.0376 40.3827V39.2291H44.3408C44.705 39.2291 45 38.934 45 38.5699V37.6831C45 37.3191 44.705 37.0239 44.3408 37.0239C43.9767 37.0239 43.6816 37.3191 43.6816 37.6831V37.9107H41.2711V36.2615C41.2711 35.8974 40.976 35.6023 40.6119 35.6023C40.2478 35.6023 39.9527 35.8974 39.9527 36.2615V37.9107H32.0375V37.1446C32.0375 35.3221 30.8744 33.7148 29.1432 33.1451L27.4269 32.5803C27.73 31.7666 28.3853 31.1244 29.2309 30.8457L33.0901 29.5758C33.4428 30.5447 34.3731 31.2386 35.4624 31.2386C36.5518 31.2386 37.482 30.5447 37.8347 29.5758L41.6937 30.8457C42.8828 31.2373 43.6816 32.3416 43.6816 33.5936V34.6038C43.6816 34.9678 43.9767 35.2629 44.3408 35.2629ZM35.4624 16.1452C37.4488 16.1452 39.0648 17.7613 39.0648 19.7477V22.5888C39.0648 24.5752 37.4487 26.1912 35.4624 26.1912C33.476 26.1912 31.86 24.5752 31.86 22.5888V19.7477C31.86 17.7613 33.476 16.1452 35.4624 16.1452ZM18.8975 7.76189V4.92082C18.8975 2.9344 20.5136 1.31836 22.5 1.31836C24.4864 1.31836 26.1025 2.9344 26.1025 4.92082V7.76189C26.1025 9.7483 24.4863 11.3643 22.5 11.3643C20.5137 11.3643 18.8975 9.7483 18.8975 7.76189ZM22.5 12.6827C22.9157 12.6827 23.3194 12.6304 23.7053 12.5329V13.8703C23.7052 13.8765 23.7052 13.8827 23.7053 13.8888C23.7048 14.553 23.1644 15.0932 22.5001 15.0932C21.8358 15.0932 21.2953 14.553 21.2948 13.8888C21.2948 13.8826 21.2949 13.8764 21.2948 13.8703V12.5329C21.6806 12.6303 22.0843 12.6827 22.5 12.6827ZM16.269 16.0193L20.1277 14.7488C20.4804 15.7177 21.4106 16.4116 22.4999 16.4116C23.5892 16.4116 24.5195 15.7177 24.8722 14.7488L28.7313 16.0194C29.8332 16.3813 30.5973 17.3463 30.7041 18.4934C30.5983 18.894 30.5415 19.3143 30.5415 19.7477V22.5888C30.5415 22.7558 30.55 22.9208 30.5663 23.0836H27.4152C27.302 20.4699 25.1409 18.3782 22.4998 18.3782C19.8587 18.3782 17.6977 20.4699 17.5845 23.0836H14.4333C14.4497 22.9208 14.4582 22.7558 14.4582 22.5888V19.7477C14.4582 19.3143 14.4013 18.8941 14.2956 18.4934C14.4025 17.3464 15.1668 16.3814 16.269 16.0193ZM22.5 29.7425C20.5136 29.7425 18.8975 28.1265 18.8975 26.1401V23.299C18.8975 21.3126 20.5137 19.6966 22.5 19.6966C24.4863 19.6966 26.1025 21.3126 26.1025 23.299V26.1401C26.1025 28.1265 24.4864 29.7425 22.5 29.7425ZM5.93508 22.5888V19.7477C5.93508 17.7613 7.55121 16.1452 9.53754 16.1452C11.5239 16.1452 13.1399 17.7613 13.1399 19.7477V22.5888C13.1399 24.5752 11.5239 26.1912 9.53754 26.1912C7.55121 26.1912 5.93508 24.5752 5.93508 22.5888ZM10.7428 28.7148C10.7428 29.3795 10.2022 29.9201 9.53754 29.9201C8.87291 29.9201 8.33221 29.3794 8.33221 28.7148V27.3597C8.71805 27.4573 9.12173 27.5096 9.53754 27.5096C9.95326 27.5096 10.3569 27.4573 10.7428 27.3597V28.7148ZM16.181 29.5933L12.0612 28.2377V26.8111C12.9831 26.258 13.709 25.4116 14.1108 24.402H17.5792V26.1401C17.5792 27.9314 18.5417 29.5017 19.9763 30.3624V31.7892L18.825 32.1681C18.392 30.9602 17.4295 30.0048 16.181 29.5933ZM22.5 33.4716C21.8354 33.4716 21.2947 32.9309 21.2947 32.2662V32.2582C21.2947 32.2569 21.2947 32.2556 21.2947 32.2544V30.9111C21.6805 31.0087 22.0842 31.061 22.5 31.061C22.9158 31.061 23.3194 31.0087 23.7053 30.9111V32.2544V32.2582V32.2662C23.7053 32.9309 23.1646 33.4716 22.5 33.4716ZM28.8187 29.5934C27.5705 30.0048 26.608 30.9602 26.1751 32.1681L25.0237 31.7892V30.3625C26.4583 29.5018 27.4208 27.9315 27.4208 26.1402V24.402H30.8892C31.291 25.4116 32.0169 26.2581 32.9388 26.8111V28.2377L28.8187 29.5934ZM35.4624 29.9202C34.7977 29.9202 34.2571 29.3795 34.2571 28.7149V27.3598C34.643 27.4574 35.0466 27.5097 35.4624 27.5097C35.8781 27.5097 36.2818 27.4574 36.6677 27.3598V28.7149C36.6677 29.3795 36.127 29.9202 35.4624 29.9202Z" fill="#821122"/>
</svg>
