<svg width="46" height="46" viewBox="0 0 46 46" fill="none" xmlns="http://www.w3.org/2000/svg">
<g clip-path="url(#clip0)">
<path d="M24.453 5.4707V22.9603L28.9117 19.4726H45.5V5.4707H24.453ZM44.1791 18.1517H28.4483L25.774 20.212V6.7917H44.1791V18.1517Z" fill="#821122"/>
<path d="M0.5 23.0836V37.0856H17.1764L21.547 40.5732V23.0836H0.5ZM20.226 37.8249L17.6397 35.7646H1.82091V24.4045H20.226V37.8249Z" fill="#821122"/>
<path d="M7.66659 18.6606L5.89858 16.8925L4.96448 17.8266L8.24948 21.1116L11.5346 17.8266L10.6005 16.8925L9.01738 18.4757C9.85629 11.8711 15.5107 6.748 22.3395 6.748V5.427C14.7182 5.427 8.42842 11.2372 7.66659 18.6606Z" fill="#821122"/>
<path d="M37.8386 24.8793L34.5535 28.1643L35.4876 29.0984L37.0707 27.5152C36.2317 34.1197 30.5773 39.2429 23.7486 39.2429V40.5638C31.3699 40.5638 37.6597 34.7537 38.4215 27.3303L40.1895 29.0984L41.1236 28.1643L37.8386 24.8793Z" fill="#821122"/>
<path d="M18.1125 26.6062H6.84048V27.9271H18.1125V26.6062Z" fill="#821122"/>
<path d="M15.2945 29.4243H4.02249V30.7452H15.2945V29.4243Z" fill="#821122"/>
<path d="M12.4765 32.2422H4.02249V33.5631H12.4765V32.2422Z" fill="#821122"/>
<path d="M18.1125 29.4243H16.7036V30.7452H18.1125V29.4243Z" fill="#821122"/>
<path d="M5.43147 26.6062H4.02249V27.9271H5.43147V26.6062Z" fill="#821122"/>
<path d="M42.0656 8.99365H33.6116V10.3146H42.0656V8.99365Z" fill="#821122"/>
<path d="M42.0656 11.8116H27.9756V13.1326H42.0656V11.8116Z" fill="#821122"/>
<path d="M37.8386 14.6296H30.7935V15.9505H37.8386V14.6296Z" fill="#821122"/>
<path d="M29.3846 14.6296H27.9756V15.9505H29.3846V14.6296Z" fill="#821122"/>
<path d="M29.3846 8.99365H27.9756V10.3146H29.3846V8.99365Z" fill="#821122"/>
<path d="M32.2025 8.99365H30.7935V10.3146H32.2025V8.99365Z" fill="#821122"/>
</g>
<defs>
<clipPath id="clip0">
<rect width="45" height="45" fill="white" transform="translate(0.5 0.5)"/>
</clipPath>
</defs>
</svg>
