<svg width="46" height="46" viewBox="0 0 46 46" fill="none" xmlns="http://www.w3.org/2000/svg">
<g clip-path="url(#clip0)">
<path d="M14.5625 3.40039H42.6875V4.80664H14.5625V3.40039Z" fill="#821122"/>
<path d="M3.3125 3.40039H4.71875V4.80664H3.3125V3.40039Z" fill="#821122"/>
<path d="M6.125 3.40039H7.53125V4.80664H6.125V3.40039Z" fill="#821122"/>
<path d="M8.9375 3.40039H10.3438V4.80664H8.9375V3.40039Z" fill="#821122"/>
<path d="M17.281 24.7248L15.6869 23.1307L16.6812 22.1358L17.281 22.7363L18.772 21.2449L19.7663 22.2391L17.281 24.7248Z" fill="#821122"/>
<path d="M17.281 36.0051L15.6869 34.411L16.6812 33.4161L17.281 34.0165L18.772 32.5251L19.7663 33.5194L17.281 36.0051Z" fill="#821122"/>
<path d="M24.4062 20.2754H32.8438V21.6816H24.4062V20.2754Z" fill="#821122"/>
<path d="M24.4062 23.791H30.0312V25.1973H24.4062V23.791Z" fill="#821122"/>
<path d="M24.4062 31.5254H32.8438V32.9316H24.4062V31.5254Z" fill="#821122"/>
<path d="M24.4062 35.041H30.0312V36.4473H24.4062V35.041Z" fill="#821122"/>
<path d="M0.5 0.587891V38.5566H10.3438V43.529L13.4374 45.3489L15.828 43.9427L18.2189 45.3489L20.6094 43.9427L23 45.3489L25.3906 43.9427L27.7811 45.3489L30.172 43.9427L32.5626 45.3489L35.6562 43.529V38.5566H45.5V0.587891H0.5ZM34.25 42.7249L32.5626 43.7175L30.172 42.3112L27.7811 43.7175L25.3906 42.3112L23 43.7175L20.6094 42.3112L18.2189 43.7175L15.828 42.3112L13.4374 43.7175L11.75 42.7249V11.8379H28.625V17.4629H34.25V42.7249ZM30.0312 16.0566V12.8322L33.2557 16.0566H30.0312ZM44.0938 37.1504H35.6562V16.4686L29.6193 10.4316H10.3438V37.1504H1.90625V7.61914H44.0938V37.1504ZM44.0938 6.21289H1.90625V1.99414H44.0938V6.21289Z" fill="#821122"/>
<path d="M17.7266 18.166C15.2025 18.166 13.1562 20.2122 13.1562 22.7363C13.1562 25.2604 15.2025 27.3066 17.7266 27.3066C20.2507 27.3066 22.2969 25.2604 22.2969 22.7363C22.2938 20.2136 20.2493 18.1691 17.7266 18.166ZM17.7266 25.9004C15.979 25.9004 14.5625 24.4838 14.5625 22.7363C14.5625 20.9888 15.979 19.5723 17.7266 19.5723C19.4741 19.5723 20.8906 20.9888 20.8906 22.7363C20.8886 24.4832 19.4734 25.8983 17.7266 25.9004Z" fill="#821122"/>
<path d="M17.7266 29.416C15.2025 29.416 13.1562 31.4622 13.1562 33.9863C13.1562 36.5104 15.2025 38.5566 17.7266 38.5566C20.2507 38.5566 22.2969 36.5104 22.2969 33.9863C22.2938 31.4636 20.2493 29.4191 17.7266 29.416ZM17.7266 37.1504C15.979 37.1504 14.5625 35.7338 14.5625 33.9863C14.5625 32.2388 15.979 30.8223 17.7266 30.8223C19.4741 30.8223 20.8906 32.2388 20.8906 33.9863C20.8886 35.7332 19.4734 37.1483 17.7266 37.1504Z" fill="#821122"/>
</g>
<defs>
<clipPath id="clip0">
<rect width="45" height="45" fill="white" transform="translate(0.5 0.5)"/>
</clipPath>
</defs>
</svg>
