<svg width="45" height="45" viewBox="0 0 45 45" fill="none" xmlns="http://www.w3.org/2000/svg">
<g clip-path="url(#clip0)">
<path d="M43.3768 34.9269H40.8747L40.8744 13.7827C40.8744 13.4187 40.5793 13.1235 40.2152 13.1235C39.8511 13.1235 39.5561 13.4187 39.5561 13.7827L39.5563 34.9269H19.2234C18.3284 34.9269 17.6004 35.655 17.6004 36.55V39.0699C17.6004 40.2278 16.6583 41.1698 15.5005 41.1698H15.4915C14.3394 41.1698 13.4019 40.2323 13.4019 39.08L13.4007 33.5942C13.8463 33.6348 14.2944 33.6559 14.7441 33.6559H18.865C20.0354 33.6559 20.9876 32.7037 20.9876 31.5334V30.5976C20.9876 30.2295 20.8934 29.8831 20.7279 29.5811C21.4362 29.2367 21.9255 28.5098 21.9255 27.6708V26.7352C21.9255 26.3346 21.814 25.9597 21.6205 25.6398C22.2485 25.2707 22.671 24.5879 22.671 23.8084V22.8726C22.671 22.4263 22.5325 22.0117 22.2963 21.6696C22.8321 21.2839 23.1815 20.655 23.1815 19.9459V19.0101C23.1815 17.8397 22.2294 16.8875 21.0591 16.8875L14.0391 16.886C13.687 16.8859 13.4006 16.5993 13.4006 16.2473V14.4573C13.4006 14.0932 13.1055 13.7981 12.7414 13.7981C10.867 13.7981 9.12683 14.6427 7.9672 16.1154C7.09603 17.1093 6.8211 17.9009 5.73768 18.3031C5.59072 16.8539 4.36351 15.7191 2.87613 15.7191C1.29023 15.7189 0 17.0091 0 18.5951V30.7797C0 32.3657 1.29023 33.6559 2.87622 33.6559C4.19229 33.6559 5.30394 32.7671 5.64451 31.5584C6.01998 31.5784 6.5061 31.4834 7.17565 31.7501C9.07629 32.4449 9.88638 33.0114 12.0823 33.414L12.0836 39.0801C12.0836 40.9593 13.6124 42.4881 15.4915 42.4881H15.5005H15.5007H41.5818C43.4667 42.4881 45.0001 40.9546 45.0001 39.0698V36.5499C45 35.655 44.2719 34.9269 43.3768 34.9269ZM7.66354 30.5255C6.72917 30.1532 6.00935 30.2574 5.75244 30.2401V29.1342C5.75244 28.7702 5.4573 28.475 5.09326 28.475C4.72922 28.475 4.43408 28.7702 4.43408 29.1342V30.7798C4.43408 31.6387 3.73518 32.3377 2.87613 32.3377C2.01718 32.3377 1.31827 31.6387 1.31827 30.7798V18.5951C1.31827 17.7361 2.01718 17.0372 2.87613 17.0372C3.73518 17.0372 4.43408 17.7361 4.43408 18.5951V26.0509C4.43408 26.415 4.72922 26.7101 5.09326 26.7101C5.4573 26.7101 5.75244 26.415 5.75244 26.0509V19.6753C7.65378 19.2093 8.25671 17.7232 9.0029 16.9308C9.77326 15.9524 10.8708 15.3281 12.0822 15.1612V16.2471C12.0822 17.3258 12.9599 18.2038 14.0388 18.2041L21.0589 18.2056C21.5024 18.2056 21.8631 18.5664 21.8631 19.0098V19.9456C21.8631 20.389 21.5024 20.7498 21.0589 20.7498C14.3326 20.7491 14.6742 20.7491 14.4141 20.7491C14.4141 20.7491 14.4141 20.7491 14.414 20.7491C14.0499 20.7491 13.7548 21.0441 13.7548 21.4082C13.7548 21.7722 14.0498 22.0674 14.4139 22.0675L20.5482 22.0682H20.5483C20.9917 22.0682 21.3525 22.4289 21.3525 22.8724V23.8081C21.3525 24.2515 20.9917 24.6123 20.5483 24.6123C14.5248 24.6118 13.7267 24.6118 13.6571 24.6118C13.293 24.6118 12.9979 24.9069 12.9979 25.271C12.9979 25.6351 13.2929 25.9302 13.6571 25.9302L19.8029 25.9307C20.2463 25.9307 20.6071 26.2915 20.6071 26.7349V27.6706C20.6071 28.114 20.2463 28.4748 19.8029 28.4748C11.3019 28.4728 12.9064 28.4732 12.7025 28.4732C12.7024 28.4732 12.7024 28.4732 12.7023 28.4732C12.3383 28.4732 12.0432 28.7682 12.0431 29.1322C12.043 29.4962 12.3381 29.7915 12.7021 29.7916L18.8648 29.7931H18.8649C19.3083 29.7931 19.6691 30.1539 19.6691 30.5973V31.5331C19.6691 31.9765 19.3083 32.3373 18.8649 32.3373H14.744C11.1166 32.3377 9.00439 30.9588 7.66354 30.5255ZM43.6816 39.0699C43.6816 40.2278 42.7396 41.1698 41.5818 41.1698H18.1959C18.6487 40.5899 18.9187 39.8609 18.9187 39.0699V36.55C18.9187 36.3819 19.0555 36.2453 19.2234 36.2453H43.3768C43.5449 36.2453 43.6816 36.3819 43.6816 36.55V39.0699Z" fill="#821122"/>
<path d="M8.087 12.901H12.7413C13.1054 12.901 13.4005 12.6058 13.4005 12.2418V5.93045C13.4005 5.13917 13.1295 4.41047 12.6766 3.83057H37.4665C38.6186 3.83057 39.5561 4.76801 39.5561 5.92017V10.701C39.5561 11.065 39.8511 11.3602 40.2152 11.3602C40.5794 11.3602 40.8744 11.065 40.8744 10.701V5.92017C40.8744 4.04098 39.3456 2.51221 37.4665 2.51221H9.98227C8.09745 2.51221 6.56403 4.04563 6.56403 5.93045V11.378C6.56403 12.2178 7.2472 12.901 8.087 12.901ZM7.88239 5.93045C7.88239 4.77258 8.8244 3.83057 9.98227 3.83057C11.1401 3.83057 12.0822 4.77258 12.0822 5.93045V11.5826H8.087C7.97414 11.5826 7.88239 11.4909 7.88239 11.378V5.93045Z" fill="#821122"/>
<path d="M18.75 7.5H32.5V8.75H18.75V7.5Z" fill="#821122"/>
<path d="M18.75 11.25H28.75V12.5H18.75V11.25Z" fill="#821122"/>
</g>
<defs>
<clipPath id="clip0">
<rect width="45" height="45" fill="white"/>
</clipPath>
</defs>
</svg>
