<svg width="35" height="14" viewBox="0 0 35 14" fill="none" xmlns="http://www.w3.org/2000/svg">
<path d="M4.88 0.0599995C6.4 0.0599995 7.71333 0.346666 8.82 0.919999C9.94 1.48 10.7933 2.28667 11.38 3.34C11.98 4.39333 12.28 5.63333 12.28 7.06C12.28 8.48667 11.98 9.72667 11.38 10.78C10.7933 11.82 9.94 12.62 8.82 13.18C7.71333 13.7267 6.4 14 4.88 14H0.54V0.0599995H4.88ZM4.88 12.5C6.68 12.5 8.05333 12.0267 9 11.08C9.94667 10.12 10.42 8.78 10.42 7.06C10.42 5.32667 9.94 3.97333 8.98 3C8.03333 2.02667 6.66667 1.54 4.88 1.54H2.36V12.5H4.88ZM23.2606 0.0599995V1.54H19.4606V14H17.6406V1.54H13.8206V0.0599995H23.2606ZM34.8209 4.14C34.8209 5.3 34.4209 6.26667 33.6209 7.04C32.8343 7.8 31.6276 8.18 30.0009 8.18H27.3209V14H25.5009V0.0599995H30.0009C31.5743 0.0599995 32.7676 0.439999 33.5809 1.2C34.4076 1.96 34.8209 2.94 34.8209 4.14ZM30.0009 6.68C31.0143 6.68 31.7609 6.46 32.2409 6.02C32.7209 5.58 32.9609 4.95333 32.9609 4.14C32.9609 2.42 31.9743 1.56 30.0009 1.56H27.3209V6.68H30.0009Z" fill="#821122"/>
</svg>
