<svg width="26" height="36" viewBox="0 0 26 36" fill="none" xmlns="http://www.w3.org/2000/svg">
<path d="M16.255 32.2356L15.4288 31.5692C15.6439 31.3026 15.8605 31.0303 16.0727 30.7599L16.9078 31.4151C16.6927 31.6893 16.473 31.9653 16.255 32.2356Z" fill="#821122"/>
<path d="M13 36C13 36 9.5025 32.2716 6.46647 27.8577C2.35931 21.8865 0.276794 16.7945 0.276794 12.7232C0.276794 5.70755 5.98441 0 13 0C20.0156 0 25.7232 5.70755 25.7232 12.7232C25.7232 18.654 21.2917 25.7001 17.5742 30.5665L16.7308 29.9222C20.3488 25.1858 24.6617 18.3573 24.6617 12.7232C24.6617 6.2929 19.4303 1.06144 13 1.06144C6.56969 1.06144 1.33823 6.29283 1.33823 12.7232C1.33823 16.5186 3.41104 21.5397 7.33265 27.2441C9.69677 30.6828 12.0874 33.4254 13.0001 34.4393C13.3672 34.032 13.9725 33.3463 14.7146 32.453L15.5311 33.1313C14.272 34.6469 13 36 13 36Z" fill="#821122"/>
<path d="M8.18634 26.5604L7.59515 25.6648L8.48749 25.0898L9.06574 25.9659L8.18634 26.5604Z" fill="#821122"/>
<path d="M6.46091 23.8527L7.36738 23.3007L7.91933 24.2072L7.01286 24.7591L6.46091 23.8527Z" fill="#821122"/>
<path d="M13 22.3537C8.98767 22.3537 5.37445 19.8201 4.00884 16.0493L5.00686 15.6878C6.2208 19.04 9.43296 21.2922 13 21.2922C17.686 21.2922 21.4984 17.4799 21.4984 12.7939C21.4984 8.10781 17.686 4.29539 13 4.29539C8.31394 4.29539 4.50159 8.10774 4.50159 12.7938C4.50159 13.4464 4.57577 14.0965 4.72202 14.7258L3.68815 14.9661C3.52355 14.258 3.44016 13.5272 3.44016 12.7938C3.44016 7.52246 7.72866 3.23389 13.0001 3.23389C18.2715 3.23389 22.56 7.52239 22.56 12.7938C22.56 18.0652 18.2713 22.3537 13 22.3537Z" fill="#821122"/>
<path d="M16.4248 17.9498L13 16.1492L9.57522 17.9498L10.2293 14.1362L7.45853 11.4354L11.2875 10.879L13 7.4093L14.7124 10.879L18.5414 11.4354L15.7707 14.1362L16.4248 17.9498ZM13 14.95L15.015 16.0094L14.6302 13.7656L16.2604 12.1766L14.0075 11.8492L13 9.80773L11.9925 11.8492L9.73961 12.1766L11.3698 13.7656L10.985 16.0094L13 14.95Z" fill="#821122"/>
<path d="M8.51109 8.24551L7.76205 7.49345C8.01764 7.23892 8.30248 6.99775 8.63287 6.75623L9.25929 7.61312C8.97291 7.82244 8.72815 8.02937 8.51109 8.24551Z" fill="#821122"/>
<path d="M10.0925 7.10287L9.60764 6.15864C9.96018 5.97759 10.316 5.82881 10.6654 5.71631L10.9908 6.7267C10.6961 6.82155 10.3939 6.94811 10.0925 7.10287Z" fill="#821122"/>
</svg>