<svg width="36" height="36" viewBox="0 0 36 36" fill="none" xmlns="http://www.w3.org/2000/svg">
<path d="M24.5248 15.9054C24.4711 15.81 24.3923 15.7313 24.297 15.6775L14.697 10.2775C14.4091 10.1135 14.0427 10.2139 13.8787 10.5018C13.8269 10.5927 13.7998 10.6955 13.8 10.8001V21.6001C13.8007 21.8138 13.9149 22.011 14.1 22.1179C14.284 22.2255 14.5113 22.2273 14.697 22.1227L24.297 16.7227C24.5856 16.5599 24.6876 16.194 24.5248 15.9054ZM15 20.5741V11.8261L22.776 16.2001L15 20.5741Z" fill="#821122"/>
<path d="M12 28.2V27H10.8V28.2H2.40002V29.4H10.8V30.6H12V29.4H33.6V28.2H12Z" fill="#821122"/>
<path d="M18 6.59998C12.6981 6.59998 8.40002 10.8981 8.40002 16.2C8.40632 21.4993 12.7007 25.7937 18 25.8C23.3019 25.8 27.6 21.5019 27.6 16.2C27.6 10.8981 23.3019 6.59998 18 6.59998ZM18 24.6C13.3608 24.6 9.60002 20.8392 9.60002 16.2C9.60497 11.5629 13.3629 7.80493 18 7.79998C22.6392 7.79998 26.4 11.5608 26.4 16.2C26.4 20.8392 22.6392 24.6 18 24.6Z" fill="#821122"/>
<path d="M34.2 3H1.8C0.805875 3 0 3.80588 0 4.8V31.2C0 32.1941 0.805875 33 1.8 33H34.2C35.1941 33 36 32.1941 36 31.2V4.8C36 3.80588 35.1941 3 34.2 3ZM34.8 31.2C34.8 31.5314 34.5314 31.8 34.2 31.8H1.8C1.46865 31.8 1.2 31.5314 1.2 31.2V4.8C1.2 4.46865 1.46865 4.2 1.8 4.2H34.2C34.5314 4.2 34.8 4.46865 34.8 4.8V31.2Z" fill="#821122"/>
<path d="M3.60002 5.40002H2.40002V6.60002H3.60002V5.40002Z" fill="#821122"/>
<path d="M5.99999 5.40002H4.79999V6.60002H5.99999V5.40002Z" fill="#821122"/>
<path d="M8.40001 5.40002H7.20001V6.60002H8.40001V5.40002Z" fill="#821122"/>
</svg>