<svg width="112" height="112" viewBox="0 0 112 112" fill="none" xmlns="http://www.w3.org/2000/svg">
<g filter="url(#filter0_d)">
<circle cx="56" cy="52" r="40" fill="white"/>
</g>
<g clip-path="url(#clip0)">
<path d="M47.5625 32.4004H75.6875V33.8066H47.5625V32.4004Z" fill="#821122"/>
<path d="M36.3125 32.4004H37.7188V33.8066H36.3125V32.4004Z" fill="#821122"/>
<path d="M39.125 32.4004H40.5312V33.8066H39.125V32.4004Z" fill="#821122"/>
<path d="M41.9375 32.4004H43.3438V33.8066H41.9375V32.4004Z" fill="#821122"/>
<path d="M50.281 53.7248L48.6869 52.1307L49.6812 51.1358L50.281 51.7363L51.772 50.2449L52.7663 51.2391L50.281 53.7248Z" fill="#821122"/>
<path d="M50.281 65.0051L48.6869 63.411L49.6812 62.4161L50.281 63.0165L51.772 61.5251L52.7663 62.5194L50.281 65.0051Z" fill="#821122"/>
<path d="M57.4062 49.2754H65.8438V50.6816H57.4062V49.2754Z" fill="#821122"/>
<path d="M57.4062 52.791H63.0312V54.1973H57.4062V52.791Z" fill="#821122"/>
<path d="M57.4062 60.5254H65.8438V61.9316H57.4062V60.5254Z" fill="#821122"/>
<path d="M57.4062 64.041H63.0312V65.4473H57.4062V64.041Z" fill="#821122"/>
<path d="M33.5 29.5879V67.5566H43.3438V72.529L46.4374 74.3489L48.828 72.9427L51.2189 74.3489L53.6094 72.9427L56 74.3489L58.3906 72.9427L60.7811 74.3489L63.172 72.9427L65.5626 74.3489L68.6562 72.529V67.5566H78.5V29.5879H33.5ZM67.25 71.7249L65.5626 72.7175L63.172 71.3112L60.7811 72.7175L58.3906 71.3112L56 72.7175L53.6094 71.3112L51.2189 72.7175L48.828 71.3112L46.4374 72.7175L44.75 71.7249V40.8379H61.625V46.4629H67.25V71.7249ZM63.0312 45.0566V41.8322L66.2557 45.0566H63.0312ZM77.0938 66.1504H68.6562V45.4686L62.6193 39.4316H43.3438V66.1504H34.9062V36.6191H77.0938V66.1504ZM77.0938 35.2129H34.9062V30.9941H77.0938V35.2129Z" fill="#821122"/>
<path d="M50.7266 47.166C48.2025 47.166 46.1562 49.2122 46.1562 51.7363C46.1562 54.2604 48.2025 56.3066 50.7266 56.3066C53.2507 56.3066 55.2969 54.2604 55.2969 51.7363C55.2938 49.2136 53.2493 47.1691 50.7266 47.166ZM50.7266 54.9004C48.979 54.9004 47.5625 53.4838 47.5625 51.7363C47.5625 49.9888 48.979 48.5723 50.7266 48.5723C52.4741 48.5723 53.8906 49.9888 53.8906 51.7363C53.8886 53.4832 52.4734 54.8983 50.7266 54.9004Z" fill="#821122"/>
<path d="M50.7266 58.416C48.2025 58.416 46.1562 60.4622 46.1562 62.9863C46.1562 65.5104 48.2025 67.5566 50.7266 67.5566C53.2507 67.5566 55.2969 65.5104 55.2969 62.9863C55.2938 60.4636 53.2493 58.4191 50.7266 58.416ZM50.7266 66.1504C48.979 66.1504 47.5625 64.7338 47.5625 62.9863C47.5625 61.2388 48.979 59.8223 50.7266 59.8223C52.4741 59.8223 53.8906 61.2388 53.8906 62.9863C53.8886 64.7332 52.4734 66.1483 50.7266 66.1504Z" fill="#821122"/>
</g>
<defs>
<filter id="filter0_d" x="0" y="0" width="112" height="112" filterUnits="userSpaceOnUse" color-interpolation-filters="sRGB">
<feFlood flood-opacity="0" result="BackgroundImageFix"/>
<feColorMatrix in="SourceAlpha" type="matrix" values="0 0 0 0 0 0 0 0 0 0 0 0 0 0 0 0 0 0 127 0" result="hardAlpha"/>
<feOffset dy="4"/>
<feGaussianBlur stdDeviation="8"/>
<feComposite in2="hardAlpha" operator="out"/>
<feColorMatrix type="matrix" values="0 0 0 0 0 0 0 0 0 0 0 0 0 0 0 0 0 0 0.15 0"/>
<feBlend mode="normal" in2="BackgroundImageFix" result="effect1_dropShadow"/>
<feBlend mode="normal" in="SourceGraphic" in2="effect1_dropShadow" result="shape"/>
</filter>
<clipPath id="clip0">
<rect width="45" height="45" fill="white" transform="translate(33.5 29.5)"/>
</clipPath>
</defs>
</svg>
