<svg width="112" height="112" viewBox="0 0 112 112" fill="none" xmlns="http://www.w3.org/2000/svg">
<g filter="url(#filter0_d)">
<circle cx="56" cy="52" r="40" fill="white"/>
</g>
<g clip-path="url(#clip0)">
<path d="M76.8768 64.4269H74.3747L74.3744 43.2827C74.3744 42.9187 74.0793 42.6235 73.7152 42.6235C73.3511 42.6235 73.0561 42.9187 73.0561 43.2827L73.0563 64.4269H52.7234C51.8284 64.4269 51.1004 65.155 51.1004 66.05V68.5699C51.1004 69.7278 50.1583 70.6698 49.0005 70.6698H48.9915C47.8394 70.6698 46.9019 69.7323 46.9019 68.58L46.9007 63.0942C47.3463 63.1348 47.7944 63.1559 48.2441 63.1559H52.365C53.5354 63.1559 54.4876 62.2037 54.4876 61.0334V60.0976C54.4876 59.7295 54.3934 59.3831 54.2279 59.0811C54.9362 58.7367 55.4255 58.0098 55.4255 57.1708V56.2352C55.4255 55.8346 55.314 55.4597 55.1205 55.1398C55.7485 54.7707 56.171 54.0879 56.171 53.3084V52.3726C56.171 51.9263 56.0325 51.5117 55.7963 51.1696C56.3321 50.7839 56.6815 50.155 56.6815 49.4459V48.5101C56.6815 47.3397 55.7294 46.3875 54.5591 46.3875L47.5391 46.386C47.187 46.3859 46.9006 46.0993 46.9006 45.7473V43.9573C46.9006 43.5932 46.6055 43.2981 46.2414 43.2981C44.367 43.2981 42.6268 44.1427 41.4672 45.6154C40.596 46.6093 40.3211 47.4009 39.2377 47.8031C39.0907 46.3539 37.8635 45.2191 36.3761 45.2191C34.7902 45.2189 33.5 46.5091 33.5 48.0951V60.2797C33.5 61.8657 34.7902 63.1559 36.3762 63.1559C37.6923 63.1559 38.8039 62.2671 39.1445 61.0584C39.52 61.0784 40.0061 60.9834 40.6757 61.2501C42.5763 61.9449 43.3864 62.5114 45.5823 62.914L45.5836 68.5801C45.5836 70.4593 47.1124 71.9881 48.9915 71.9881H49.0005H49.0007H75.0818C76.9667 71.9881 78.5001 70.4546 78.5001 68.5698V66.0499C78.5 65.155 77.7719 64.4269 76.8768 64.4269ZM41.1635 60.0255C40.2292 59.6532 39.5093 59.7574 39.2524 59.7401V58.6342C39.2524 58.2702 38.9573 57.975 38.5933 57.975C38.2292 57.975 37.9341 58.2702 37.9341 58.6342V60.2798C37.9341 61.1387 37.2352 61.8377 36.3761 61.8377C35.5172 61.8377 34.8183 61.1387 34.8183 60.2798V48.0951C34.8183 47.2361 35.5172 46.5372 36.3761 46.5372C37.2352 46.5372 37.9341 47.2361 37.9341 48.0951V55.5509C37.9341 55.915 38.2292 56.2101 38.5933 56.2101C38.9573 56.2101 39.2524 55.915 39.2524 55.5509V49.1753C41.1538 48.7093 41.7567 47.2232 42.5029 46.4308C43.2733 45.4524 44.3708 44.8281 45.5822 44.6612V45.7471C45.5822 46.8258 46.4599 47.7038 47.5388 47.7041L54.5589 47.7056C55.0024 47.7056 55.3631 48.0664 55.3631 48.5098V49.4456C55.3631 49.889 55.0024 50.2498 54.5589 50.2498C47.8326 50.2491 48.1742 50.2491 47.9141 50.2491C47.9141 50.2491 47.9141 50.2491 47.914 50.2491C47.5499 50.2491 47.2548 50.5441 47.2548 50.9082C47.2548 51.2722 47.5498 51.5674 47.9139 51.5675L54.0482 51.5682H54.0483C54.4917 51.5682 54.8525 51.9289 54.8525 52.3724V53.3081C54.8525 53.7515 54.4917 54.1123 54.0483 54.1123C48.0248 54.1118 47.2267 54.1118 47.1571 54.1118C46.793 54.1118 46.4979 54.4069 46.4979 54.771C46.4979 55.1351 46.7929 55.4302 47.1571 55.4302L53.3029 55.4307C53.7463 55.4307 54.1071 55.7915 54.1071 56.2349V57.1706C54.1071 57.614 53.7463 57.9748 53.3029 57.9748C44.8019 57.9728 46.4064 57.9732 46.2025 57.9732C46.2024 57.9732 46.2024 57.9732 46.2023 57.9732C45.8383 57.9732 45.5432 58.2682 45.5431 58.6322C45.543 58.9962 45.8381 59.2915 46.2021 59.2916L52.3648 59.2931H52.3649C52.8083 59.2931 53.1691 59.6539 53.1691 60.0973V61.0331C53.1691 61.4765 52.8083 61.8373 52.3649 61.8373H48.244C44.6166 61.8377 42.5044 60.4588 41.1635 60.0255ZM77.1816 68.5699C77.1816 69.7278 76.2396 70.6698 75.0818 70.6698H51.6959C52.1487 70.0899 52.4187 69.3609 52.4187 68.5699V66.05C52.4187 65.8819 52.5555 65.7453 52.7234 65.7453H76.8768C77.0449 65.7453 77.1816 65.8819 77.1816 66.05V68.5699Z" fill="#821122"/>
<path d="M41.587 42.401H46.2413C46.6054 42.401 46.9005 42.1058 46.9005 41.7418V35.4304C46.9005 34.6392 46.6295 33.9105 46.1766 33.3306H70.9665C72.1186 33.3306 73.0561 34.268 73.0561 35.4202V40.201C73.0561 40.565 73.3511 40.8602 73.7152 40.8602C74.0794 40.8602 74.3744 40.565 74.3744 40.201V35.4202C74.3744 33.541 72.8456 32.0122 70.9665 32.0122H43.4823C41.5975 32.0122 40.064 33.5456 40.064 35.4304V40.878C40.064 41.7178 40.7472 42.401 41.587 42.401ZM41.3824 35.4304C41.3824 34.2726 42.3244 33.3306 43.4823 33.3306C44.6401 33.3306 45.5822 34.2726 45.5822 35.4304V41.0826H41.587C41.4741 41.0826 41.3824 40.9909 41.3824 40.878V35.4304Z" fill="#821122"/>
<path d="M52.25 37H66V38.25H52.25V37Z" fill="#821122"/>
<path d="M52.25 40.75H62.25V42H52.25V40.75Z" fill="#821122"/>
</g>
<defs>
<filter id="filter0_d" x="0" y="0" width="112" height="112" filterUnits="userSpaceOnUse" color-interpolation-filters="sRGB">
<feFlood flood-opacity="0" result="BackgroundImageFix"/>
<feColorMatrix in="SourceAlpha" type="matrix" values="0 0 0 0 0 0 0 0 0 0 0 0 0 0 0 0 0 0 127 0" result="hardAlpha"/>
<feOffset dy="4"/>
<feGaussianBlur stdDeviation="8"/>
<feComposite in2="hardAlpha" operator="out"/>
<feColorMatrix type="matrix" values="0 0 0 0 0 0 0 0 0 0 0 0 0 0 0 0 0 0 0.15 0"/>
<feBlend mode="normal" in2="BackgroundImageFix" result="effect1_dropShadow"/>
<feBlend mode="normal" in="SourceGraphic" in2="effect1_dropShadow" result="shape"/>
</filter>
<clipPath id="clip0">
<rect width="45" height="45" fill="white" transform="translate(33.5 29.5)"/>
</clipPath>
</defs>
</svg>
