<svg width="64" height="64" viewBox="0 0 64 64" fill="none" xmlns="http://www.w3.org/2000/svg">
<circle cx="32" cy="32" r="32" fill="#F5F5F5"/>
<g clip-path="url(#clip0)">
<path d="M35.255 46.2356L34.4288 45.5692C34.6439 45.3026 34.8605 45.0303 35.0727 44.7599L35.9078 45.4151C35.6927 45.6893 35.473 45.9653 35.255 46.2356Z" fill="#821122"/>
<path d="M32 50C32 50 28.5025 46.2716 25.4665 41.8577C21.3593 35.8865 19.2768 30.7945 19.2768 26.7232C19.2768 19.7075 24.9844 14 32 14C39.0156 14 44.7232 19.7075 44.7232 26.7232C44.7232 32.654 40.2917 39.7001 36.5742 44.5665L35.7308 43.9222C39.3488 39.1858 43.6617 32.3573 43.6617 26.7232C43.6617 20.2929 38.4303 15.0614 32 15.0614C25.5697 15.0614 20.3382 20.2928 20.3382 26.7232C20.3382 30.5186 22.411 35.5397 26.3327 41.2441C28.6968 44.6828 31.0874 47.4254 32.0001 48.4393C32.3672 48.032 32.9725 47.3463 33.7146 46.453L34.5311 47.1313C33.272 48.6469 32 50 32 50Z" fill="#821122"/>
<path d="M27.1863 40.5604L26.5952 39.6648L27.4875 39.0898L28.0657 39.9659L27.1863 40.5604Z" fill="#821122"/>
<path d="M25.4609 37.8527L26.3674 37.3007L26.9193 38.2072L26.0129 38.7591L25.4609 37.8527Z" fill="#821122"/>
<path d="M32 36.3537C27.9877 36.3537 24.3745 33.8201 23.0088 30.0493L24.0069 29.6878C25.2208 33.04 28.433 35.2922 32 35.2922C36.686 35.2922 40.4984 31.4799 40.4984 26.7939C40.4984 22.1078 36.686 18.2954 32 18.2954C27.3139 18.2954 23.5016 22.1077 23.5016 26.7938C23.5016 27.4464 23.5758 28.0965 23.722 28.7258L22.6881 28.9661C22.5235 28.258 22.4402 27.5272 22.4402 26.7938C22.4402 21.5225 26.7287 17.2339 32.0001 17.2339C37.2715 17.2339 41.56 21.5224 41.56 26.7938C41.56 32.0652 37.2713 36.3537 32 36.3537Z" fill="#821122"/>
<path d="M35.4248 31.9498L32 30.1492L28.5752 31.9498L29.2293 28.1362L26.4585 25.4354L30.2875 24.879L32 21.4093L33.7124 24.879L37.5414 25.4354L34.7707 28.1362L35.4248 31.9498ZM32 28.95L34.015 30.0094L33.6302 27.7656L35.2604 26.1766L33.0075 25.8492L32 23.8077L30.9925 25.8492L28.7396 26.1766L30.3698 27.7656L29.985 30.0094L32 28.95Z" fill="#821122"/>
<path d="M27.5111 22.2455L26.7621 21.4935C27.0176 21.2389 27.3025 20.9977 27.6329 20.7562L28.2593 21.6131C27.9729 21.8224 27.7281 22.0294 27.5111 22.2455Z" fill="#821122"/>
<path d="M29.0925 21.1029L28.6076 20.1586C28.9602 19.9776 29.316 19.8288 29.6654 19.7163L29.9908 20.7267C29.6961 20.8216 29.3939 20.9481 29.0925 21.1029Z" fill="#821122"/>
</g>
<defs>
<clipPath id="clip0">
<rect width="36" height="36" fill="white" transform="translate(14 14)"/>
</clipPath>
</defs>
</svg>
