<svg width="64" height="64" viewBox="0 0 64 64" fill="none" xmlns="http://www.w3.org/2000/svg">
<circle cx="32" cy="32" r="32" fill="#FAF6EB"/>
<g clip-path="url(#clip0)">
<path d="M35.2551 46.2357L34.429 45.5693C34.644 45.3028 34.8606 45.0304 35.0728 44.76L35.908 45.4152C35.6928 45.6894 35.4732 45.9654 35.2551 46.2357Z" fill="#821122"/>
<path d="M32 50C32 50 28.5026 46.2716 25.4665 41.8577C21.3594 35.8865 19.2769 30.7945 19.2769 26.7232C19.2769 19.7075 24.9845 14 32 14C39.0156 14 44.7232 19.7075 44.7232 26.7232C44.7232 32.654 40.2918 39.7001 36.5743 44.5665L35.7308 43.9222C39.3489 39.1858 43.6618 32.3573 43.6618 26.7232C43.6618 20.2929 38.4303 15.0614 32 15.0614C25.5698 15.0614 20.3383 20.2928 20.3383 26.7232C20.3383 30.5186 22.4111 35.5397 26.3327 41.2441C28.6968 44.6828 31.0875 47.4254 32.0002 48.4393C32.3673 48.032 32.9726 47.3463 33.7147 46.453L34.5311 47.1313C33.2721 48.6469 32 50 32 50Z" fill="#821122"/>
<path d="M27.1864 40.5604L26.5952 39.6648L27.4876 39.0898L28.0658 39.9659L27.1864 40.5604Z" fill="#821122"/>
<path d="M25.4609 37.8525L26.3674 37.3006L26.9194 38.2071L26.0129 38.759L25.4609 37.8525Z" fill="#821122"/>
<path d="M32 36.3537C27.9877 36.3537 24.3745 33.8201 23.0089 30.0493L24.0069 29.6878C25.2208 33.04 28.433 35.2922 32 35.2922C36.6861 35.2922 40.4984 31.4799 40.4984 26.7939C40.4984 22.1078 36.6861 18.2954 32 18.2954C27.314 18.2954 23.5016 22.1077 23.5016 26.7938C23.5016 27.4464 23.5758 28.0965 23.7221 28.7258L22.6882 28.9661C22.5236 28.258 22.4402 27.5272 22.4402 26.7938C22.4402 21.5225 26.7287 17.2339 32.0001 17.2339C37.2715 17.2339 41.56 21.5224 41.56 26.7938C41.56 32.0652 37.2713 36.3537 32 36.3537Z" fill="#821122"/>
<path d="M35.4248 31.9497L32 30.1491L28.5752 31.9497L29.2292 28.136L26.4585 25.4353L30.2875 24.8789L32 21.4092L33.7124 24.8789L37.5414 25.4353L34.7706 28.136L35.4248 31.9497ZM32 28.9499L34.015 30.0092L33.6302 27.7655L35.2604 26.1764L33.0075 25.8491L32 23.8076L30.9925 25.8491L28.7396 26.1764L30.3698 27.7655L29.985 30.0092L32 28.9499Z" fill="#821122"/>
<path d="M27.5112 22.2456L26.7622 21.4936C27.0178 21.239 27.3026 20.9979 27.633 20.7563L28.2594 21.6132C27.9731 21.8226 27.7283 22.0295 27.5112 22.2456Z" fill="#821122"/>
<path d="M29.0925 21.1029L28.6077 20.1586C28.9602 19.9776 29.3161 19.8288 29.6654 19.7163L29.9908 20.7267C29.6962 20.8216 29.394 20.9481 29.0925 21.1029Z" fill="#821122"/>
</g>
<defs>
<clipPath id="clip0">
<rect width="36" height="36" fill="white" transform="translate(14 14)"/>
</clipPath>
</defs>
</svg>
