<svg width="64" height="64" viewBox="0 0 64 64" fill="none" xmlns="http://www.w3.org/2000/svg">
<circle cx="32" cy="32" r="32" fill="#EFEDE5"/>
<path d="M38.5249 29.9054C38.4711 29.81 38.3924 29.7313 38.297 29.6775L28.6971 24.2775C28.4091 24.1135 28.0427 24.2139 27.8787 24.5018C27.827 24.5927 27.7998 24.6955 27.8001 24.8001V35.6001C27.8007 35.8138 27.915 36.011 28.1001 36.1179C28.2841 36.2255 28.5114 36.2273 28.6971 36.1227L38.297 30.7227C38.5856 30.5599 38.6876 30.194 38.5249 29.9054ZM29.0001 34.5741V25.8261L36.776 30.2001L29.0001 34.5741Z" fill="#821122"/>
<path d="M25.9999 42.2V41H24.7999V42.2H16.3999V43.4H24.7999V44.6H25.9999V43.4H47.5999V42.2H25.9999Z" fill="#821122"/>
<path d="M31.9999 20.6001C26.698 20.6001 22.3999 24.8982 22.3999 30.2001C22.4062 35.4994 26.7006 39.7938 31.9999 39.8001C37.3018 39.8001 41.5999 35.502 41.5999 30.2001C41.5999 24.8982 37.3018 20.6001 31.9999 20.6001ZM31.9999 38.6001C27.3607 38.6001 23.5999 34.8393 23.5999 30.2001C23.6049 25.563 27.3628 21.805 31.9999 21.8001C36.6391 21.8001 40.3999 25.5609 40.3999 30.2001C40.3999 34.8393 36.6391 38.6001 31.9999 38.6001Z" fill="#821122"/>
<path d="M48.2 17H15.8C14.8059 17 14 17.8059 14 18.8V45.2C14 46.1941 14.8059 47 15.8 47H48.2C49.1941 47 50 46.1941 50 45.2V18.8C50 17.8059 49.1941 17 48.2 17ZM48.8 45.2C48.8 45.5314 48.5314 45.8 48.2 45.8H15.8C15.4686 45.8 15.2 45.5314 15.2 45.2V18.8C15.2 18.4686 15.4686 18.2 15.8 18.2H48.2C48.5314 18.2 48.8 18.4686 48.8 18.8V45.2Z" fill="#821122"/>
<path d="M17.5999 19.3999H16.3999V20.5999H17.5999V19.3999Z" fill="#821122"/>
<path d="M20 19.3999H18.8V20.5999H20V19.3999Z" fill="#821122"/>
<path d="M22.4 19.3999H21.2V20.5999H22.4V19.3999Z" fill="#821122"/>
</svg>
