<svg width="64" height="64" viewBox="0 0 64 64" fill="none" xmlns="http://www.w3.org/2000/svg">
<circle cx="32" cy="32" r="32" fill="#E2C781" fill-opacity="0.16"/>
<path d="M33.1624 17.9766V31.9683L36.7293 29.1781H49.9999V17.9766H33.1624ZM48.9432 28.1214H36.3586L34.2192 29.7696V19.0334H48.9432V28.1214Z" fill="#821122"/>
<path d="M14 32.0669V43.2684H27.3411L30.8376 46.0586V32.0669H14ZM29.7808 43.8599L27.7118 42.2117H15.0567V33.1236H29.7808V43.8599Z" fill="#821122"/>
<path d="M19.7332 28.5285L18.3188 27.1141L17.5715 27.8613L20.1995 30.4893L22.8276 27.8613L22.0803 27.1141L20.8139 28.3806C21.485 23.097 26.0085 18.9984 31.4715 18.9984V17.9417C25.3745 17.9417 20.3427 22.5898 19.7332 28.5285Z" fill="#821122"/>
<path d="M43.8709 33.5034L41.2428 36.1314L41.9901 36.8787L43.2566 35.6122C42.5854 40.8958 38.0618 44.9943 32.5989 44.9943V46.051C38.6959 46.051 43.7277 41.403 44.3372 35.4642L45.7516 36.8787L46.4989 36.1314L43.8709 33.5034Z" fill="#821122"/>
<path d="M28.09 34.885H19.0724V35.9417H28.09V34.885Z" fill="#821122"/>
<path d="M25.8356 37.1394H16.818V38.1961H25.8356V37.1394Z" fill="#821122"/>
<path d="M23.5812 39.3938H16.818V40.4505H23.5812V39.3938Z" fill="#821122"/>
<path d="M28.0899 37.1394H26.9628V38.1961H28.0899V37.1394Z" fill="#821122"/>
<path d="M17.9452 34.885H16.818V35.9417H17.9452V34.885Z" fill="#821122"/>
<path d="M47.2525 20.7949H40.4893V21.8516H47.2525V20.7949Z" fill="#821122"/>
<path d="M47.2525 23.0493H35.9805V24.106H47.2525V23.0493Z" fill="#821122"/>
<path d="M43.8709 25.3037H38.2349V26.3604H43.8709V25.3037Z" fill="#821122"/>
<path d="M37.1076 25.3037H35.9805V26.3604H37.1076V25.3037Z" fill="#821122"/>
<path d="M37.1076 20.7949H35.9805V21.8516H37.1076V20.7949Z" fill="#821122"/>
<path d="M39.362 20.7949H38.2349V21.8516H39.362V20.7949Z" fill="#821122"/>
</svg>
