<svg width="64" height="64" viewBox="0 0 64 64" fill="none" xmlns="http://www.w3.org/2000/svg">
<circle cx="32" cy="32" r="32" fill="#F5F5F5"/>
<path d="M38.5248 29.9054C38.4711 29.81 38.3923 29.7313 38.297 29.6775L28.697 24.2775C28.4091 24.1135 28.0427 24.2139 27.8787 24.5018C27.8269 24.5927 27.7998 24.6955 27.8 24.8001V35.6001C27.8007 35.8138 27.9149 36.011 28.1 36.1179C28.284 36.2255 28.5113 36.2273 28.697 36.1227L38.297 30.7227C38.5856 30.5599 38.6876 30.194 38.5248 29.9054ZM29 34.5741V25.8261L36.776 30.2001L29 34.5741Z" fill="#821122"/>
<path d="M26 42.2V41H24.8V42.2H16.4V43.4H24.8V44.6H26V43.4H47.6V42.2H26Z" fill="#821122"/>
<path d="M32 20.6C26.6981 20.6 22.4 24.8981 22.4 30.2C22.4063 35.4993 26.7007 39.7937 32 39.8C37.3019 39.8 41.6 35.5019 41.6 30.2C41.6 24.8981 37.3019 20.6 32 20.6ZM32 38.6C27.3608 38.6 23.6 34.8392 23.6 30.2C23.605 25.5629 27.3629 21.8049 32 21.8C36.6392 21.8 40.4 25.5608 40.4 30.2C40.4 34.8392 36.6392 38.6 32 38.6Z" fill="#821122"/>
<path d="M48.2 17H15.8C14.8059 17 14 17.8059 14 18.8V45.2C14 46.1941 14.8059 47 15.8 47H48.2C49.1941 47 50 46.1941 50 45.2V18.8C50 17.8059 49.1941 17 48.2 17ZM48.8 45.2C48.8 45.5314 48.5314 45.8 48.2 45.8H15.8C15.4686 45.8 15.2 45.5314 15.2 45.2V18.8C15.2 18.4686 15.4686 18.2 15.8 18.2H48.2C48.5314 18.2 48.8 18.4686 48.8 18.8V45.2Z" fill="#821122"/>
<path d="M17.6 19.4H16.4V20.6H17.6V19.4Z" fill="#821122"/>
<path d="M20 19.4H18.8V20.6H20V19.4Z" fill="#821122"/>
<path d="M22.4 19.4H21.2V20.6H22.4V19.4Z" fill="#821122"/>
</svg>