<svg width="112" height="112" viewBox="0 0 112 112" fill="none" xmlns="http://www.w3.org/2000/svg">
<g filter="url(#filter0_d)">
<circle cx="56" cy="52" r="40" fill="white"/>
</g>
<g clip-path="url(#clip0)">
<path d="M77.8408 64.7629C78.205 64.7629 78.5 64.4678 78.5 64.1038V63.0936C78.5 61.2712 77.3372 59.6637 75.6061 59.0933L71.4861 57.7377V56.3112C72.9207 55.4505 73.8832 53.8802 73.8832 52.0889V49.2478C73.8832 46.5344 71.6757 44.327 68.9624 44.327C67.3642 44.327 65.942 45.0934 65.0425 46.2774C64.5446 45.343 63.7003 44.6143 62.6432 44.2671L58.5236 42.9108V41.4843C59.9582 40.6236 60.9207 39.0533 60.9207 37.262V34.4208C60.9208 31.7075 58.7134 29.5 56 29.5C53.2866 29.5 51.0792 31.7075 51.0792 34.4208V37.2619C51.0792 39.0532 52.0417 40.6235 53.4763 41.4842V42.9107L49.3571 44.2669C48.2998 44.6143 47.4554 45.343 46.9575 46.2774C46.058 45.0933 44.6358 44.327 43.0376 44.327C40.3243 44.327 38.1168 46.5344 38.1168 49.2478V52.0889C38.1168 53.8802 39.0793 55.4505 40.5139 56.3112V57.7377L36.3935 59.0934C34.6628 59.6637 33.5 61.2712 33.5 63.0936V64.1038C33.5 64.4678 33.795 64.7629 34.1592 64.7629C34.5233 64.7629 34.8184 64.4678 34.8184 64.1038V63.0936C34.8184 61.8416 35.6172 60.7373 36.8058 60.3456L40.6652 59.0756C41.0179 60.0446 41.9481 60.7384 43.0375 60.7384C44.1269 60.7384 45.0571 60.0445 45.4098 59.0756L49.2686 60.3454C50.1145 60.6242 50.7699 61.2663 51.073 62.0801L49.3567 62.645C47.6255 63.2147 46.4624 64.822 46.4624 66.6444V67.4106H38.5473V65.7613C38.5473 65.3973 38.2522 65.1021 37.8881 65.1021C37.524 65.1021 37.2289 65.3973 37.2289 65.7613V67.4106H34.8184V67.1829C34.8184 66.8189 34.5233 66.5238 34.1592 66.5238C33.795 66.5238 33.5 66.8189 33.5 67.1829V68.0697C33.5 68.4338 33.795 68.7289 34.1592 68.7289H46.4624V73.8406C46.4624 74.2047 46.7574 74.4998 47.1216 74.4998H64.8784C65.2425 74.4998 65.5375 74.2047 65.5375 73.8406V72.9602C65.5375 72.5961 65.2425 72.301 64.8784 72.301C64.5142 72.301 64.2192 72.5961 64.2192 72.9602V73.1816H61.8087V69.3129C61.8087 68.9488 61.5136 68.6537 61.1495 68.6537C60.7854 68.6537 60.4903 68.9488 60.4903 69.3129V73.1816H51.5097V69.3129C51.5097 68.9488 51.2146 68.6537 50.8505 68.6537C50.4864 68.6537 50.1913 68.9488 50.1913 69.3129V73.1816H47.7807V66.6446C47.7807 65.3928 48.5797 64.2887 49.7688 63.8974L53.6277 62.6274C53.9805 63.5962 54.9107 64.29 56 64.29C57.0893 64.29 58.0195 63.5963 58.3723 62.6274L62.2312 63.8974C63.4203 64.2888 64.2193 65.3928 64.2193 66.6446V69.8827C64.2193 70.2467 64.5143 70.5418 64.8784 70.5418C65.2426 70.5418 65.5376 70.2467 65.5376 69.8827V68.7291H77.8408C78.205 68.7291 78.5 68.434 78.5 68.0699V67.1831C78.5 66.8191 78.205 66.5239 77.8408 66.5239C77.4767 66.5239 77.1816 66.8191 77.1816 67.1831V67.4107H74.7711V65.7615C74.7711 65.3974 74.476 65.1023 74.1119 65.1023C73.7478 65.1023 73.4527 65.3974 73.4527 65.7615V67.4107H65.5375V66.6446C65.5375 64.8221 64.3744 63.2148 62.6432 62.6451L60.9269 62.0803C61.23 61.2666 61.8853 60.6244 62.7309 60.3457L66.5901 59.0758C66.9428 60.0447 67.8731 60.7386 68.9624 60.7386C70.0518 60.7386 70.982 60.0447 71.3347 59.0758L75.1937 60.3457C76.3828 60.7373 77.1816 61.8416 77.1816 63.0936V64.1038C77.1816 64.4678 77.4767 64.7629 77.8408 64.7629ZM68.9624 45.6452C70.9488 45.6452 72.5648 47.2613 72.5648 49.2477V52.0888C72.5648 54.0752 70.9487 55.6912 68.9624 55.6912C66.976 55.6912 65.36 54.0752 65.36 52.0888V49.2477C65.36 47.2613 66.976 45.6452 68.9624 45.6452ZM52.3975 37.2619V34.4208C52.3975 32.4344 54.0136 30.8184 56 30.8184C57.9864 30.8184 59.6025 32.4344 59.6025 34.4208V37.2619C59.6025 39.2483 57.9863 40.8643 56 40.8643C54.0137 40.8643 52.3975 39.2483 52.3975 37.2619ZM56 42.1827C56.4157 42.1827 56.8194 42.1304 57.2053 42.0329V43.3703C57.2052 43.3765 57.2052 43.3827 57.2053 43.3888C57.2048 44.053 56.6644 44.5932 56.0001 44.5932C55.3358 44.5932 54.7953 44.053 54.7948 43.3888C54.7948 43.3826 54.7949 43.3764 54.7948 43.3703V42.0329C55.1806 42.1303 55.5843 42.1827 56 42.1827ZM49.769 45.5193L53.6277 44.2488C53.9804 45.2177 54.9106 45.9116 55.9999 45.9116C57.0892 45.9116 58.0195 45.2177 58.3722 44.2488L62.2313 45.5194C63.3332 45.8813 64.0973 46.8463 64.2041 47.9934C64.0983 48.394 64.0415 48.8143 64.0415 49.2477V52.0888C64.0415 52.2558 64.05 52.4208 64.0663 52.5836H60.9152C60.802 49.9699 58.6409 47.8782 55.9998 47.8782C53.3587 47.8782 51.1977 49.9699 51.0845 52.5836H47.9333C47.9497 52.4208 47.9582 52.2558 47.9582 52.0888V49.2477C47.9582 48.8143 47.9013 48.3941 47.7956 47.9934C47.9025 46.8464 48.6668 45.8814 49.769 45.5193ZM56 59.2425C54.0136 59.2425 52.3975 57.6265 52.3975 55.6401V52.799C52.3975 50.8126 54.0137 49.1966 56 49.1966C57.9863 49.1966 59.6025 50.8126 59.6025 52.799V55.6401C59.6025 57.6265 57.9864 59.2425 56 59.2425ZM39.4351 52.0888V49.2477C39.4351 47.2613 41.0512 45.6452 43.0375 45.6452C45.0239 45.6452 46.6399 47.2613 46.6399 49.2477V52.0888C46.6399 54.0752 45.0239 55.6912 43.0375 55.6912C41.0512 55.6912 39.4351 54.0752 39.4351 52.0888ZM44.2428 58.2148C44.2428 58.8795 43.7022 59.4201 43.0375 59.4201C42.3729 59.4201 41.8322 58.8794 41.8322 58.2148V56.8597C42.218 56.9573 42.6217 57.0096 43.0375 57.0096C43.4533 57.0096 43.8569 56.9573 44.2428 56.8597V58.2148ZM49.681 59.0933L45.5612 57.7377V56.3111C46.4831 55.758 47.209 54.9116 47.6108 53.902H51.0792V55.6401C51.0792 57.4314 52.0417 59.0017 53.4763 59.8624V61.2892L52.325 61.6681C51.892 60.4602 50.9295 59.5048 49.681 59.0933ZM56 62.9716C55.3354 62.9716 54.7947 62.4309 54.7947 61.7662V61.7582C54.7947 61.7569 54.7947 61.7556 54.7947 61.7544V60.4111C55.1805 60.5087 55.5842 60.561 56 60.561C56.4158 60.561 56.8194 60.5087 57.2053 60.4111V61.7544V61.7582V61.7662C57.2053 62.4309 56.6646 62.9716 56 62.9716ZM62.3187 59.0934C61.0705 59.5048 60.108 60.4602 59.6751 61.6681L58.5237 61.2892V59.8625C59.9583 59.0018 60.9208 57.4315 60.9208 55.6402V53.902H64.3892C64.791 54.9116 65.5169 55.7581 66.4388 56.3111V57.7377L62.3187 59.0934ZM68.9624 59.4202C68.2977 59.4202 67.7571 58.8795 67.7571 58.2149V56.8598C68.143 56.9574 68.5466 57.0097 68.9624 57.0097C69.3781 57.0097 69.7818 56.9574 70.1677 56.8598V58.2149C70.1677 58.8795 69.627 59.4202 68.9624 59.4202Z" fill="#821122"/>
</g>
<defs>
<filter id="filter0_d" x="0" y="0" width="112" height="112" filterUnits="userSpaceOnUse" color-interpolation-filters="sRGB">
<feFlood flood-opacity="0" result="BackgroundImageFix"/>
<feColorMatrix in="SourceAlpha" type="matrix" values="0 0 0 0 0 0 0 0 0 0 0 0 0 0 0 0 0 0 127 0" result="hardAlpha"/>
<feOffset dy="4"/>
<feGaussianBlur stdDeviation="8"/>
<feComposite in2="hardAlpha" operator="out"/>
<feColorMatrix type="matrix" values="0 0 0 0 0 0 0 0 0 0 0 0 0 0 0 0 0 0 0.15 0"/>
<feBlend mode="normal" in2="BackgroundImageFix" result="effect1_dropShadow"/>
<feBlend mode="normal" in="SourceGraphic" in2="effect1_dropShadow" result="shape"/>
</filter>
<clipPath id="clip0">
<rect width="45" height="45" fill="white" transform="translate(33.5 29.5)"/>
</clipPath>
</defs>
</svg>
