<svg width="64" height="64" viewBox="0 0 64 64" fill="none" xmlns="http://www.w3.org/2000/svg">
<circle cx="32" cy="32" r="32" fill="#F5F5F5"/>
<path d="M33.1624 17.9767V31.9684L36.7294 29.1782H50V17.9767H33.1624ZM48.9433 28.1215H36.3587L34.2192 29.7697V19.0335H48.9433V28.1215Z" fill="#821122"/>
<path d="M14 32.0669V43.2684H27.3411L30.8376 46.0586V32.0669H14ZM29.7808 43.8599L27.7118 42.2117H15.0567V33.1236H29.7808V43.8599Z" fill="#821122"/>
<path d="M19.7333 28.5285L18.3189 27.1141L17.5716 27.8613L20.1996 30.4893L22.8277 27.8613L22.0804 27.1141L20.8139 28.3806C21.485 23.097 26.0086 18.9984 31.4716 18.9984V17.9417C25.3746 17.9417 20.3428 22.5898 19.7333 28.5285Z" fill="#821122"/>
<path d="M43.8709 33.5034L41.2428 36.1314L41.9901 36.8787L43.2565 35.6122C42.5853 40.8958 38.0618 44.9943 32.5988 44.9943V46.051C38.6959 46.051 43.7277 41.403 44.3372 35.4642L45.7516 36.8787L46.4989 36.1314L43.8709 33.5034Z" fill="#821122"/>
<path d="M28.09 34.8849H19.0724V35.9416H28.09V34.8849Z" fill="#821122"/>
<path d="M25.8356 37.1393H16.818V38.196H25.8356V37.1393Z" fill="#821122"/>
<path d="M23.5812 39.3937H16.818V40.4504H23.5812V39.3937Z" fill="#821122"/>
<path d="M28.09 37.1393H26.9628V38.196H28.09V37.1393Z" fill="#821122"/>
<path d="M17.9452 34.8849H16.818V35.9416H17.9452V34.8849Z" fill="#821122"/>
<path d="M47.2525 20.795H40.4893V21.8518H47.2525V20.795Z" fill="#821122"/>
<path d="M47.2525 23.0493H35.9805V24.106H47.2525V23.0493Z" fill="#821122"/>
<path d="M43.8709 25.3038H38.2348V26.3606H43.8709V25.3038Z" fill="#821122"/>
<path d="M37.1076 25.3038H35.9805V26.3606H37.1076V25.3038Z" fill="#821122"/>
<path d="M37.1076 20.795H35.9805V21.8518H37.1076V20.795Z" fill="#821122"/>
<path d="M39.362 20.795H38.2348V21.8518H39.362V20.795Z" fill="#821122"/>
</svg>